PathFileType	4	(X/Y/Z)	D:\TRACE\spot_10-12-23\spot_arm_motion_2_1-platform.trc
DataRate	CameraRate	NumFrames	NumMarkers	Units	OrigDataRate	OrigDataStartFrame	OrigNumFrames
100.00	100.00	      25	5	mm	100.00	1	      7000
Frame#	Time	Left_Front			Right_Front			Left_Aft			Right_Aft			Post			
		X1	Y1	Z1	X2	Y2	Z2	X3	Y3	Z3	X4	Y4	Z4	X5	Y5	Z5	

1	0.000	-780.71942	6.14185	-641.56274	791.63159	10.79725	-634.85364	-697.87689	5.32148	496.38678	719.35095	9.80837	582.55328	1.87610	743.96289	-959.49036	
2	0.010	-780.73718	6.17703	-641.54462	791.48175	10.82365	-635.00665	-697.85175	5.33793	496.40732	719.32733	9.81240	582.52576	1.93444	743.95001	-959.44073	
3	0.020	-780.73590	6.17521	-641.53119	791.66498	10.76953	-634.84827	-697.86163	5.32458	496.36755	719.33948	9.80981	582.53577	1.91650	743.94928	-959.47980	
4	0.030	-780.78687	6.18553	-641.52979	791.47253	10.82599	-634.99420	-697.85339	5.31776	496.40344	719.33594	9.80671	582.55756	1.88403	743.94183	-959.46259	
5	0.040	-780.73523	6.12311	-641.53851	791.68945	10.77425	-634.85767	-697.82202	5.25212	496.42914	719.32141	9.81775	582.54303	1.87541	743.92682	-959.47314	
6	0.050	-780.74908	6.15567	-641.54791	791.58990	10.76274	-634.93170	-697.81000	5.32796	496.41483	719.33771	9.84340	582.53265	1.93565	743.93060	-959.47583	
7	0.060	-780.69324	6.11906	-641.56262	791.47882	10.81496	-634.98712	-697.84662	5.31226	496.38974	719.33362	9.83030	582.54303	1.89202	743.94836	-959.52643	
8	0.070	-780.78094	6.16770	-641.50684	791.48608	10.80790	-634.97638	-697.90552	5.31464	496.40533	719.33527	9.82237	582.55383	1.91839	743.92566	-959.50055	
9	0.080	-780.75433	6.14802	-641.54321	791.67194	10.77730	-634.82074	-697.93597	5.31949	496.36676	719.31744	9.80902	582.56195	1.90740	743.97284	-959.52686	
10	0.090	-780.78833	6.22060	-641.53949	791.57959	10.81991	-634.93176	-697.86609	5.31507	496.35980	719.35834	9.82673	582.55286	1.88648	743.95740	-959.51575	
11	0.100	-780.78961	6.19256	-641.54822	791.46313	10.83980	-635.01813	-697.86346	5.29621	496.35284	719.33545	9.81890	582.54004	1.88423	743.95984	-959.43829	
12	0.110	-780.80206	6.23349	-641.54700	791.67816	10.82507	-634.86255	-697.87451	5.30296	496.37030	719.34576	9.80791	582.55139	1.92494	743.97089	-959.43268	
13	0.120	-780.77173	6.17510	-641.53802	791.60315	10.74805	-634.85040	-697.84576	5.29185	496.41129	719.34167	9.81701	582.55292	1.92627	743.98920	-959.45447	
14	0.130	-780.77020	6.15798	-641.53558	791.47693	10.79374	-635.01270	-697.90125	5.31960	496.35217	719.33228	9.80253	582.52063	1.93176	743.95337	-959.46313	
15	0.140	-780.76312	6.15471	-641.53174	791.60608	10.79400	-634.87793	-697.87634	5.31713	496.34851	719.34875	9.81133	582.52795	1.91369	743.96423	-959.45605	
16	0.150	-780.84644	6.25222	-641.53882	791.62854	10.75253	-634.88269	-697.91058	5.30176	496.36685	719.32605	9.80364	582.53516	1.85849	743.98047	-959.48761	
17	0.160	-780.79272	6.20216	-641.53296	791.68500	10.80849	-634.85840	-697.86639	5.30734	496.37158	719.34857	9.82773	582.57190	1.85968	743.97638	-959.48883	
18	0.170	-780.75696	6.17432	-641.56329	791.48944	10.82086	-635.01959	-697.84277	5.30400	496.39728	719.33899	9.80963	582.56927	1.91188	743.97882	-959.48474	
19	0.180	-780.80847	6.19747	-641.51910	791.63116	10.82245	-634.83905	-697.84100	5.34198	496.35425	719.35449	9.80408	582.55670	1.84720	743.96210	-959.53156	
20	0.190	-780.75757	6.16314	-641.55261	791.48743	10.78022	-634.98846	-697.79065	5.28225	496.37766	719.35925	9.82896	582.55908	1.92158	743.96191	-959.53900	
21	0.200	-780.76556	6.22751	-641.57831	791.50238	10.78385	-634.98499	-697.87622	5.30382	496.37817	719.35083	9.81513	582.55707	1.87266	743.96637	-959.52625	
22	0.210	-780.82532	6.25605	-641.51935	791.62036	10.77261	-634.89020	-697.90088	5.34032	496.38123	719.31714	9.81362	582.54932	1.91023	743.97778	-959.51099	
23	0.220	-780.72894	6.15640	-641.55396	791.43518	10.82548	-635.03345	-697.86804	5.30946	496.41446	719.31787	9.81616	582.55896	1.85434	743.95789	-959.50604	
24	0.230	-780.78558	6.17940	-641.55292	791.57440	10.78284	-634.88770	-697.87988	5.33320	496.35742	719.33575	9.81858	582.55817	1.88599	743.94806	-959.46979	
25	0.240	-780.74658	6.15669	-641.57477	791.68658	10.78390	-634.80591	-697.88818	5.30596	496.38657	719.33612	9.82270	582.56006	1.85827	743.96558	-959.52417	
